<svg width="40" height="40" fill="none" xmlns="http://www.w3.org/2000/svg"><g clip-path="url(#clip0_107_194)" fill="#9B51E0"><path d="M31.624 0H21.195c-.656 0-1.188.532-1.188 1.189v.825a4.015 4.015 0 002.819 3.827V7.62A3.59 3.59 0 0025.221 11v1.118a8.06 8.06 0 012.377 0V11a3.59 3.59 0 002.395-3.38V5.84a4.015 4.015 0 002.82-3.827v-.825A1.19 1.19 0 0031.622 0zM15.16 13.962l-.014.014a4.73 4.73 0 00-1.372 3.71c.127 1.648.3 4.883.05 8.015-.35 4.403-1.334 6.308-2.096 7.132-.495.533-1.04.782-1.717.782-.707 0-2.86 0-3.091-5.605-.073-1.769.09-3.587.484-5.404l1.317-6.065.413.09a1.189 1.189 0 00.504-2.323l-.412-.09 2.11-9.721a1.189 1.189 0 00-2.322-.504l-2.111 9.72-.441-.095a1.189 1.189 0 00-.505 2.323l.441.095-1.317 6.066a23.718 23.718 0 00-.537 6.006c.096 2.319.502 4.08 1.242 5.382.93 1.637 2.39 2.502 4.225 2.502 1.347 0 2.511-.52 3.46-1.544 3.19-3.443 3.044-12.094 2.673-16.944a2.355 2.355 0 01.683-1.847l.013-.014a2.357 2.357 0 013.038-.246 8.093 8.093 0 011.662-1.717 4.736 4.736 0 00-6.38.282zm17.897 14.69a5.672 5.672 0 00.602-2.538c0-1.6-.679-3.117-1.89-4.278a5.654 5.654 0 00-5.36-7.43 5.654 5.654 0 00-5.358 7.43c-1.212 1.161-1.89 2.678-1.89 4.278 0 .881.205 1.742.601 2.538-1.548 1.45-2.417 3.358-2.417 5.37 0 2.175.992 4.2 2.794 5.702.213.179.483.276.76.276H31.92c.278 0 .548-.097.761-.276 1.802-1.502 2.794-3.527 2.794-5.702 0-2.012-.87-3.92-2.418-5.37z"/></g><defs><clipPath id="clip0_107_194"><path fill="#fff" d="M0 0h40v40H0z"/></clipPath></defs></svg>