<svg width="40" height="40" fill="none" xmlns="http://www.w3.org/2000/svg"><g clip-path="url(#clip0_107_187)" fill="#9B51E0"><path d="M12.685 20.18c.471-.094.952.107 1.214.509l.34.52c1.365-3.58 4.708-6.62 4.887-6.782a1.176 1.176 0 011.547-.023c.174.148 3.955 3.388 5.31 7.103l6.6-1.38C34.118 12.453 29.687 2.853 17.618.033c-.978-.228-1.771.799-1.308 1.684 1.365 2.609 2.309 4.864.97 7.331L14.355 5.4a1.176 1.176 0 00-1.763-.08c-2.072 2.15-5.547 6.542-5.547 11.786 0 1.429.185 2.799.55 4.09l5.09-1.015zm1.405 7.945h11.74V40H14.09V28.125zm-2.348-1.172c0-.647.525-1.171 1.174-1.171h1.508l-2.057-3.149L.99 24.903l-.98 7.843a1.17 1.17 0 00.244.872l4.696 5.937c.312.394.841.546 1.316.378l5.477-1.945V26.953z"/><path d="M39.78 29.475l-5.265-7.357-9.394 1.964-.91 1.7h2.794c.649 0 1.175.524 1.175 1.171v11.61l1.654 1.21c.475.348 1.136.29 1.543-.136l8.298-8.671a1.17 1.17 0 00.106-1.49zM19.933 16.916c-1.517 1.578-3.845 4.522-3.918 7.01l1.212 1.856h4.321l1.76-3.287c.092-.17.224-.313.382-.419-.84-2.108-2.697-4.123-3.757-5.16z"/></g><defs><clipPath id="clip0_107_187"><path fill="#fff" d="M0 0h40v40H0z"/></clipPath></defs></svg>