<svg width="40" height="40" fill="none" xmlns="http://www.w3.org/2000/svg"><g clip-path="url(#clip0_34_1045)" fill="#F2994A"><path d="M23.826 16.611a12.341 12.341 0 014.808-1.575l.022-.038c2.757-4.775 1.115-10.903-3.66-13.66C20.22-1.42 14.093.223 11.336 4.998a10.006 10.006 0 00.024 10.037 12.34 12.34 0 014.81 1.576 12.29 12.29 0 013.782 3.384h.092a12.291 12.291 0 013.782-3.384zm-4.104-1.462l-.723.475a1.171 1.171 0 01-1.395-1.878 1.172 1.172 0 011.395-1.877l.723.475.724-.475a1.172 1.172 0 011.395 1.878 1.172 1.172 0 01-1.395 1.877l-.724-.475zm-1.033 7.211a9.938 9.938 0 00-3.691-3.719c-4.775-2.757-10.903-1.115-13.66 3.66-2.757 4.775-1.115 10.903 3.66 13.66a10.007 10.007 0 0013.66-3.66l.03-.054a12.254 12.254 0 01-.608-8.14 12.48 12.48 0 01.609-1.747zM9.67 31.547a1.171 1.171 0 01-2.17.858l-.348-.693-.774.045a1.172 1.172 0 01-.342-2.308 1.171 1.171 0 012.17-.858l.348.692.774-.044a1.172 1.172 0 01.342 2.308zm26.16-15.115A13.45 13.45 0 0039.942 5.48a.976.976 0 00-.886-.885 13.461 13.461 0 00-7.377 1.438c.972 2.87.892 6.082-.41 8.996 1.611.17 3.16.653 4.56 1.404zm2.829 5.868c-2.757-4.774-8.885-6.416-13.66-3.66-4.776 2.758-6.418 8.886-3.66 13.66a10.006 10.006 0 0013.66 3.661c4.775-2.757 6.416-8.885 3.66-13.66zm-3.804 8.354a1.172 1.172 0 01-1.238 1.103l-.773-.045-.349.693a1.172 1.172 0 01-2.17-.858 1.171 1.171 0 01.342-2.309l.774.045.348-.693a1.172 1.172 0 012.17.858c.542.13.93.631.896 1.206z"/></g><defs><clipPath id="clip0_34_1045"><path fill="#fff" d="M0 0h40v40H0z"/></clipPath></defs></svg>