<svg width="40" height="41" fill="none" xmlns="http://www.w3.org/2000/svg"><g clip-path="url(#clip0_1745_8)" fill="#F2994A"><path d="M12.685 20.922c.471-.094.952.108 1.214.509l.34.52c1.365-3.579 4.708-6.62 4.887-6.782a1.176 1.176 0 011.547-.022c.174.147 3.955 3.387 5.31 7.103l6.6-1.38C34.118 13.194 29.687 3.594 17.618.775c-.978-.229-1.771.798-1.308 1.683 1.365 2.61 2.309 4.865.97 7.332l-2.927-3.648a1.176 1.176 0 00-1.763-.08c-2.071 2.15-5.546 6.542-5.546 11.785 0 1.43.185 2.8.55 4.091l5.09-1.016zm1.405 7.946h11.74v11.875H14.09V28.867zm-2.348-1.172c0-.647.525-1.172 1.174-1.172h1.508l-2.057-3.148L.99 25.646l-.98 7.842a1.17 1.17 0 00.244.871l4.696 5.937c.312.395.841.547 1.316.378l5.477-1.945V27.696z"/><path d="M39.781 30.218l-5.265-7.358-9.394 1.965-.91 1.7h2.794c.648 0 1.174.524 1.174 1.171v11.61l1.654 1.21c.476.348 1.136.29 1.544-.136l8.297-8.672a1.17 1.17 0 00.106-1.49zm-19.848-12.56c-1.516 1.578-3.844 4.522-3.918 7.01l1.213 1.856h4.32l1.76-3.287a1.19 1.19 0 01.382-.418c-.84-2.11-2.697-4.124-3.757-5.16z"/></g><defs><clipPath id="clip0_1745_8"><path fill="#fff" transform="translate(0 .742)" d="M0 0h40v40H0z"/></clipPath></defs></svg>