<svg width="60" height="60" fill="none" xmlns="http://www.w3.org/2000/svg"><g clip-path="url(#clip0_23_270)" fill="#F2994A"><path d="M40.911 37.627a1 1 0 10-1.866.716c.912 2.38.978 4.198.18 4.998-.968.966-3.378.664-6.449-.806a42.755 42.755 0 01-11.064-8.256c-7.83-7.831-11.06-15.515-9.063-17.514a2.73 2.73 0 012.261-.527 1 1 0 00.194-1.99 4.603 4.603 0 00-3.868 1.1c-3.663 3.662 1.936 13.213 9.062 20.34a44.707 44.707 0 0011.616 8.646 19.69 19.69 0 002.41.964l-7.101 2.693A28.294 28.294 0 019.33 25.956a1 1 0 00-1.976.31c.157 1 .367 1.999.624 2.977a30.343 30.343 0 0016.544 19.77l-11.69 4.423a.98.98 0 00-.2-.238 13.928 13.928 0 01-5.158-9.679l-.463-5.617a.988.988 0 00-1.083-.916 1 1 0 00-.917 1.082l.472 5.615a15.924 15.924 0 005.29 10.53l-8.34 3.158 1.5-6.154a1 1 0 10-1.944-.474L.04 58.74a1 1 0 001.326 1.173L38.35 45.918a.922.922 0 00.166-.104 3.882 3.882 0 002.122-1.059c.99-.99 1.844-3.032.273-7.128z"/><path d="M50.344 35.05a32.917 32.917 0 00-16.936-1.645l-3.572.6a1 1 0 00.33 1.97l3.571-.594a30.896 30.896 0 0115.906 1.545c.112.04.231.06.35.06a1 1 0 00.351-1.937zm3.554-15.488a1 1 0 00-1.332-.472l-20.992 9.996a1 1 0 00.86 1.805l20.992-9.996a1 1 0 00.472-1.333zM24.288 6.784a1 1 0 10-1.952.434 27.963 27.963 0 01-1.492 16.903l-1.454 3.487a1 1 0 00.921 1.38 1 1 0 00.923-.614l1.454-3.484a29.948 29.948 0 001.6-18.106zm30.704 29.202a2.999 2.999 0 100 5.998 2.999 2.999 0 000-5.998zm0 3.998a1 1 0 110-1.999 1 1 0 010 2zM31.001 7.997a2.999 2.999 0 100 5.997 2.999 2.999 0 000-5.997zm0 3.998a1 1 0 110-1.999 1 1 0 010 2zm-8.996-7.997a2 2 0 100-3.998 2 2 0 000 3.998zm27.989 1a1 1 0 00-1 1v1a1 1 0 002 0v-1a1 1 0 00-1-1zm0-4.998a1 1 0 00-1 1v1a1 1 0 002 0V1a1 1 0 00-1-1zm2.998 2.999h-1a1 1 0 000 1.999h1a1 1 0 000-2zm-4.998 0h-1a1 1 0 000 1.999h1a1 1 0 000-2zm-4.998 7.976h-5.019a1 1 0 00-1 1v5.018a1 1 0 001 1h5.02a1 1 0 00.999-1v-5.019a1 1 0 00-1-1zm-1 5.019h-3.02v-3.02h3.02v3.02zm-6.282 3.328a1 1 0 00-1.383-.072l-9.997 8.996a1 1 0 001.338 1.486l9.996-8.997a1 1 0 00.046-1.413zm18.278 3.669a1 1 0 00-1 1v1a1 1 0 002 0v-1a1 1 0 00-1-1zm4.241-.171l-.706-.707a1 1 0 00-1.414 1.413l.707.707a1 1 0 001.413-1.414zm.757-3.827h-1a1 1 0 000 1.999h1a1 1 0 000-2zm-.78-3.241a1 1 0 00-1.39 0l-.706.707a1 1 0 001.413 1.413l.707-.707a1 1 0 00-.025-1.413zm-4.218-1.757a1 1 0 00-1 1v.999a1 1 0 002 0v-1a1 1 0 00-1-1zm-2.121 2.464l-.707-.707a1 1 0 00-1.413 1.413l.707.707a1 1 0 001.413-1.413zM11.96 4.322a1 1 0 00-.807-.68l-2.934-.426L6.91.558a1.04 1.04 0 00-1.793 0L3.803 3.216l-2.934.426a1 1 0 00-.556 1.705l2.122 2.069-.5 2.922a1 1 0 001.452 1.057l2.624-1.383 2.624 1.38a1 1 0 001.45-1.054l-.5-2.922 2.123-2.07a1 1 0 00.251-1.024zm-4.15 2.03a1 1 0 00-.288.883l.248 1.444-1.295-.682a1 1 0 00-.93 0l-1.299.681.248-1.444a1 1 0 00-.283-.883L3.161 5.33l1.45-.211a1 1 0 00.753-.547L6.01 3.26l.647 1.312a1 1 0 00.752.547l1.45.21-1.05 1.023zm48.803 43.753h-.004l-.412-.617a15.085 15.085 0 00-10.037-6.49 1 1 0 00-.33 1.97 13.078 13.078 0 017.628 4.253 5.898 5.898 0 00-3.998 2.746 3.998 3.998 0 106.982 3.898 5.797 5.797 0 00.649-2.566 4.884 4.884 0 01.219 5.191 1 1 0 101.745.974 6.98 6.98 0 00-2.442-9.359zm-1.914 4.785a2 2 0 01-3.501-1.932l.009-.017a3.746 3.746 0 012.707-1.761c.174-.005.346.035.5.116.843.47.888 2.512.285 3.594z"/></g><defs><clipPath id="clip0_23_270"><path fill="#fff" d="M0 0h60v60H0z"/></clipPath></defs></svg>