<svg width="34" height="34" fill="none" xmlns="http://www.w3.org/2000/svg"><g clip-path="url(#clip0_34_1035)" fill="#F2994A"><path d="M22.27 17.13a.866.866 0 00-.865.865v2.893c0 .477.388.865.865.865H34V17.13H22.27zm1.46 3.646a1.334 1.334 0 110-2.67 1.334 1.334 0 010 2.67z"/><path d="M22.27 15.11H34v-4.953a2.889 2.889 0 00-2.885-2.886H2.885A2.889 2.889 0 000 10.157v20.589a2.889 2.889 0 002.885 2.885h28.23A2.889 2.889 0 0034 30.746v-6.973H22.27a2.889 2.889 0 01-2.885-2.885v-2.893a2.889 2.889 0 012.885-2.885zM28.25.369L14.548 5.252h15.444L28.25.369z"/></g><defs><clipPath id="clip0_34_1035"><path fill="#fff" d="M0 0h34v34H0z"/></clipPath></defs></svg>