<svg width="40" height="40" fill="none" xmlns="http://www.w3.org/2000/svg"><g clip-path="url(#clip0_34_1021)" fill="#F2994A"><path d="M30.995 8.972a.863.863 0 00-1.223 0 .866.866 0 001.223 1.224.86.86 0 00.253-.612.86.86 0 00-.253-.612zM16.672 21.67c-.234-.235-.455-.348-.663-.341-.209.007-.416.113-.622.32l-.696.695 1.307 1.306.695-.695c.206-.206.313-.413.32-.622.007-.208-.106-.43-.34-.664z"/><path d="M39.942 15.44L38.036 4.9A3.658 3.658 0 0035.1 1.964L24.56.058a3.643 3.643 0 00-3.224 1.008l-20.27 20.27A3.618 3.618 0 000 23.91c0 .973.379 1.887 1.067 2.575l12.447 12.447A3.618 3.618 0 0016.089 40c.973 0 1.887-.38 2.575-1.067l20.27-20.269a3.644 3.644 0 001.008-3.223zM15.004 30.215a1.13 1.13 0 01-.298.475c-.15.15-.308.249-.474.298-.167.05-.303.02-.411-.088l-4.46-4.46a.393.393 0 01-.11-.39.88.88 0 01.25-.425l2.437-2.438a.382.382 0 01.386-.105c.15.037.288.12.415.246a.9.9 0 01.256.432.385.385 0 01-.102.383l-1.819 1.819 1.187 1.187 1.06-1.06a.395.395 0 01.37-.116.73.73 0 01.39.214.718.718 0 01.203.372.392.392 0 01-.12.372l-1.06 1.061 1.812 1.813c.108.107.137.244.088.41zm5.97-6.076c-.025.27-.12.486-.284.65-.164.164-.349.213-.555.148l-2.83-.907-.464.464 1.693 1.693c.108.108.137.245.088.41a1.13 1.13 0 01-.299.475c-.15.15-.308.25-.474.298-.166.05-.303.02-.41-.087l-4.468-4.468a.457.457 0 01-.137-.326.456.456 0 01.144-.341l1.454-1.454c1.152-1.152 2.23-1.227 3.231-.225.73.73.923 1.49.576 2.276l2.41.695a.3.3 0 01.161.092c.136.136.19.338.165.607zm3.882-3.6l-2.5 2.5a.881.881 0 01-.426.25.393.393 0 01-.39-.109l-4.46-4.46a.393.393 0 01-.109-.39.881.881 0 01.25-.425l2.5-2.5a.382.382 0 01.386-.106.89.89 0 01.415.246.9.9 0 01.256.432.386.386 0 01-.102.383l-1.882 1.882 1.187 1.188 1.054-1.054a.395.395 0 01.369-.116.73.73 0 01.39.214.717.717 0 01.203.372.392.392 0 01-.12.373l-1.053 1.053 1.194 1.195 1.883-1.883a.386.386 0 01.382-.102.89.89 0 01.432.257.892.892 0 01.246.414.382.382 0 01-.105.386zm3.786-3.786l-2.5 2.501a.88.88 0 01-.426.25.393.393 0 01-.39-.11l-4.46-4.46a.393.393 0 01-.11-.39.881.881 0 01.25-.425l2.5-2.5a.382.382 0 01.387-.106.89.89 0 01.415.246c.135.136.22.28.256.432a.385.385 0 01-.102.383l-1.882 1.882 1.187 1.188 1.053-1.054a.395.395 0 01.37-.116.73.73 0 01.389.214.719.719 0 01.204.373.392.392 0 01-.12.372l-1.053 1.054 1.194 1.194 1.882-1.883a.386.386 0 01.383-.102.9.9 0 01.432.257.892.892 0 01.246.414.38.38 0 01-.105.386zm4.012-4.898a3.2 3.2 0 01-2.27.94 3.2 3.2 0 01-2.27-.94 3.214 3.214 0 010-4.54 3.214 3.214 0 014.54 0 3.19 3.19 0 01.94 2.27 3.19 3.19 0 01-.94 2.27z"/></g><defs><clipPath id="clip0_34_1021"><path fill="#fff" d="M0 0h40v40H0z"/></clipPath></defs></svg>