<svg width="44" height="60" fill="none" xmlns="http://www.w3.org/2000/svg"><path d="M43.184 3.799a.986.986 0 10-1.966.148c.21 2.785-.088 6.847-2.702 10.384-2.618 3.541-6.332 4.773-8.327 5.435-2.954.98-5.666 1.235-8.181 1.17a3.72 3.72 0 00.344-1.564c0-1.736-1.194-3.2-2.804-3.613v-1.286h5.265a3.62 3.62 0 003.616-3.615V9.806a.986.986 0 00-.986-.986h-4.799l1.973-6.364A1.876 1.876 0 0024.333.77 1.876 1.876 0 0022.808 0h-5.232a.986.986 0 100 1.971h5.126L20.58 8.82h-4.065L13.61.656a.987.987 0 00-1.858.66l2.67 7.504H9.76a.986.986 0 00-.986.986v1.052a3.62 3.62 0 003.615 3.615h5.187v1.32a3.736 3.736 0 00-2.597 4.38c-3.915-.553-7.32-.821-10.13 1.777-.763.708-2.568 2.66-2.81 5.505-.016.193-.359 4.745 3.326 7.214 1.468.983 2.99 1.256 4.226 1.256a8.65 8.65 0 001.322-.103 3.634 3.634 0 001.604 1.944C8.87 39.79 6.395 43.681 6.395 48.14c0 2.207.615 4.35 1.755 6.206H5.376a4.622 4.622 0 00-4.617 4.617v.05c0 .545.442.986.986.986h33.712a.986.986 0 00.986-.986v-.05a4.622 4.622 0 00-4.616-4.617h-21.27a9.875 9.875 0 01-2.19-6.206c0-5.452 4.436-9.887 9.887-9.887 5.452 0 9.887 4.435 9.887 9.887 0 1.038-.16 2.06-.475 3.038a.986.986 0 001.877.605c.379-1.173.57-2.4.57-3.643 0-4.325-2.328-8.117-5.796-10.188a3.62 3.62 0 002.173-3.315 3.622 3.622 0 00-2.562-3.458 5.402 5.402 0 00-2.6-3.819 3.715 3.715 0 00.403-4.466c2.753.09 5.79-.166 9.079-1.257 2.046-.679 6.302-2.091 9.291-6.135 3.132-4.236 3.276-9.151 3.083-11.704zm-33.096 52.52h21.739a2.65 2.65 0 012.474 1.709H2.902a2.65 2.65 0 012.474-1.71h4.712zM12.389 12.5a1.645 1.645 0 01-1.643-1.643v-.066h15.71v.066c0 .906-.736 1.643-1.643 1.643H12.39zm5.988 5.133a.987.987 0 00.417-.01 1.755 1.755 0 01.866 3.164 57.503 57.503 0 01-2.383-.287 1.75 1.75 0 01-.413-1.129c0-.886.66-1.618 1.513-1.738zm.185 5.468c.97 0 1.758.789 1.758 1.758a1.76 1.76 0 01-1.758 1.758 1.76 1.76 0 01-1.757-1.758c0-.97.788-1.758 1.757-1.758zm-7.759 10.736c-.945.173-2.716.28-4.34-.808C3.733 31.2 4 27.658 4.004 27.622c.184-2.158 1.59-3.673 2.185-4.224 2.347-2.172 5.338-1.737 9.477-1.135.065.01.13.02.196.028a3.716 3.716 0 00-1.03 2.57c0 .975.377 1.864.993 2.529a5.402 5.402 0 00-2.55 3.79 3.628 3.628 0 00-2.472 2.658zm12.071-.843c.906 0 1.644.737 1.644 1.643s-.738 1.644-1.644 1.644h-8.546a1.645 1.645 0 01-1.643-1.644c0-.906.737-1.643 1.643-1.643h8.546zm-1-1.972H15.33a3.424 3.424 0 013.27-2.432 3.424 3.424 0 013.273 2.433z" fill="#F2994A"/></svg>