<svg width="40" height="40" fill="none" xmlns="http://www.w3.org/2000/svg"><g clip-path="url(#clip0_34_1033)"><path d="M36.318 15.063h-.85a16.151 16.151 0 00-1.04-2.508l.601-.601a3.682 3.682 0 000-5.209l-1.774-1.774a3.682 3.682 0 00-5.208 0l-.602.601a16.164 16.164 0 00-2.508-1.04v-.85A3.686 3.686 0 0021.256 0h-2.51a3.686 3.686 0 00-3.683 3.682v.85c-.863.275-1.701.623-2.507 1.04l-.601-.6a3.682 3.682 0 00-5.209-.001L4.971 6.745a3.682 3.682 0 000 5.208l.601.602a16.148 16.148 0 00-1.04 2.508h-.85A3.686 3.686 0 000 18.745v2.51a3.687 3.687 0 003.682 3.683h.85c.275.863.623 1.701 1.04 2.507l-.601.602a3.682 3.682 0 000 5.208l1.774 1.774a3.682 3.682 0 005.208 0l.602-.601c.806.416 1.644.765 2.508 1.04v.85A3.687 3.687 0 0018.744 40h2.51a3.687 3.687 0 003.683-3.682v-.85a16.145 16.145 0 002.507-1.04l.602.6a3.682 3.682 0 005.208.001l1.774-1.774a3.682 3.682 0 000-5.208l-.601-.602c.417-.806.765-1.644 1.04-2.508h.85A3.687 3.687 0 0040 21.255v-2.51a3.687 3.687 0 00-3.682-3.683zM20 28.703c-4.799 0-8.703-3.904-8.703-8.703 0-4.799 3.904-8.703 8.703-8.703 4.799 0 8.703 3.904 8.703 8.703 0 4.799-3.904 8.703-8.703 8.703z" fill="#F2994A"/></g><defs><clipPath id="clip0_34_1033"><path fill="#fff" d="M0 0h40v40H0z"/></clipPath></defs></svg>