<svg width="60" height="60" fill="none" xmlns="http://www.w3.org/2000/svg"><g clip-path="url(#clip0_23_249)" fill="#F2994A"><path d="M34.015 37.978c0 5.52 4.474 9.993 9.993 9.993s9.993-4.474 9.993-9.993-4.474-9.993-9.993-9.993c-5.517.006-9.987 4.477-9.993 9.993zm9.993-7.995a7.994 7.994 0 11-7.995 7.995 8.003 8.003 0 017.995-7.995zm-5.71 27.982h11.421v1.998H38.298v-1.998zm-4.283-3.998H54v1.999H34.015v-1.999zm-21.985 0h1.999v1.999h-2v-1.999zm-5.996 1.999h1.998v1.998H6.034v-1.998z"/><path d="M12.13 48.344a75.685 75.685 0 009.614-29.58l9.294 9.239a.997.997 0 001.593-.262 9.756 9.756 0 00-1.83-11.275l-.818-.818h7.03a.999.999 0 00.948-1.316 9.757 9.757 0 00-9.268-6.678h-1.3l4.991-5.02a.999.999 0 00-.261-1.599 9.76 9.76 0 00-11.282 1.83l-.954.955c-.311.313-.6.647-.866.999a9.61 9.61 0 00-.859-1l-.954-.954a9.754 9.754 0 00-11.274-1.83 1 1 0 00-.262 1.6l4.996 5.019H9.356a9.756 9.756 0 00-9.268 6.678 1 1 0 00.949 1.316h7.022l-.817.818A9.756 9.756 0 005.41 27.741a1 1 0 001.599.262l8.654-8.603A54.163 54.163 0 015.216 45.81a37.284 37.284 0 00-4.079-.832l-.624-.063-.2 1.99.582.057c1 .143 1.993.345 2.98.574-.2.25-.4.505-.607.752l1.533 1.282a56.261 56.261 0 0013.074-32.369l1.15-1.143.861.857A73.065 73.065 0 017.214 52.39l1.636 1.146a67.455 67.455 0 002.262-3.472 35.445 35.445 0 0112.092 9.473l1.546-1.266a37.33 37.33 0 00-6.637-6.302h41.884v-2H15.153a36.85 36.85 0 00-3.024-1.625zm19.24-22.83L20.812 15.016a7.708 7.708 0 017.628 1.908l.955.955a7.759 7.759 0 011.975 7.634zm4.117-11.864h-8.274a9.746 9.746 0 00-6.19-.739 7.75 7.75 0 016.317-3.258h1.35a7.759 7.759 0 016.797 3.997zm-14.19-8.417l.955-.955a7.765 7.765 0 017.638-1.976l-5.924 5.96a9.746 9.746 0 00-4.717 3.702A7.564 7.564 0 0121.3 5.233h-.003zm-5.505-.955l.954.955c.445.454.832.963 1.15 1.513a9.509 9.509 0 00-.764 3.322 9.748 9.748 0 00-3.048-1.807L8.16 2.302a7.761 7.761 0 017.636 1.976h-.003zM9.353 9.653h1.35a7.752 7.752 0 016.323 3.257 9.75 9.75 0 00-6.187.74H2.562a7.76 7.76 0 016.794-3.997h-.003zM6.68 25.513a7.76 7.76 0 011.976-7.634l.954-.955a7.638 7.638 0 015.419-2.23c.749 0 1.495.107 2.214.318L6.68 25.514z"/></g><defs><clipPath id="clip0_23_249"><path fill="#fff" d="M0 0h60v60H0z"/></clipPath></defs></svg>