<svg width="46" height="46" fill="none" xmlns="http://www.w3.org/2000/svg"><g clip-path="url(#clip0_34_1031)"><path d="M43.06 22.105a9.08 9.08 0 01-.402-.09c-1.375-.358-2.002-.554-2.466-1.45l-1.757-3.557c-.565-1.09-2.023-1.977-3.25-1.977h-3.129v-4.108c0-.737-.6-1.337-1.337-1.337L8.93 9.608c-.718 0-1.26.57-1.26 1.327v1.214H2.09a2.093 2.093 0 00-2.091 2.09c0 1.153.938 2.09 2.09 2.09h5.582v2.004H4.017c-1.152 0-2.09.938-2.09 2.09 0 1.153.938 2.09 2.09 2.09h3.655v2.004H5.944c-1.152 0-2.09.938-2.09 2.09 0 1.153.938 2.09 2.09 2.09h1.728v2.096c0 .738.6 1.338 1.337 1.338h2.267a5.017 5.017 0 004.956 4.283 5.017 5.017 0 004.957-4.283h9.172c.048 0 .097-.003.145-.006a5.017 5.017 0 004.958 4.289 5.017 5.017 0 004.957-4.283h3.255A2.327 2.327 0 0046 29.807v-3.943c0-3.142-1.77-3.514-2.94-3.76zm-7.596 7.479c1.004 0 1.822.817 1.822 1.82a1.823 1.823 0 01-1.822 1.822 1.823 1.823 0 01-1.821-1.821c0-1.004.817-1.821 1.82-1.821zm-3.408-7.762v-4.85h2.39c.92 0 2.053.689 2.474 1.5l1.563 3.166c.033.064.068.125.103.183h-6.53zm-14.002 9.583a1.823 1.823 0 01-1.822 1.82 1.823 1.823 0 01-1.82-1.82 1.822 1.822 0 013.642-.001z" fill="#F2994A"/></g><defs><clipPath id="clip0_34_1031"><path fill="#fff" d="M0 0h46v46H0z"/></clipPath></defs></svg>