<svg width="36" height="36" fill="none" xmlns="http://www.w3.org/2000/svg"><circle cx="18" cy="18" r="18" fill="#fff"/><path d="M29.312 6.685C23.062.437 12.932.439 6.685 6.688c-6.248 6.25-6.246 16.38.003 22.627 6.25 6.248 16.38 6.246 22.627-.003a16 16 0 00-.003-22.627zm-3.08 17.603l-.003.002v-.005l-.81.805a4.267 4.267 0 01-4.027 1.152 14.175 14.175 0 01-4.117-1.845 19.027 19.027 0 01-3.248-2.62 19.168 19.168 0 01-2.427-2.943 14.93 14.93 0 01-1.824-3.69 4.267 4.267 0 011.067-4.358l.949-.95a.677.677 0 01.958-.001l.002.002 2.997 2.997a.677.677 0 01.002.958l-.002.002-1.76 1.76a1.435 1.435 0 00-.149 1.867 20.58 20.58 0 002.107 2.458 20.462 20.462 0 002.773 2.331c.573.4 1.35.332 1.845-.16l1.702-1.728a.677.677 0 01.957-.002l.003.002 3.002 3.008a.677.677 0 01.002.958z" fill="#9B51E0"/></svg>