<svg width="40" height="40" viewBox="0 0 40 40" fill="none" xmlns="http://www.w3.org/2000/svg">
<g clip-path="url(#clip0_107_194)">
<path d="M31.6238 0H21.1954C20.5389 0 20.0068 0.532188 20.0068 1.18852V2.01383C20.0068 3.80992 21.1945 5.33383 22.8257 5.84148V7.61852C22.8257 9.1782 23.8275 10.5075 25.2211 10.999V12.1169C25.609 12.0591 26.0058 12.0287 26.4096 12.0287C26.8133 12.0287 27.2102 12.059 27.5981 12.1169V10.999C28.9916 10.5076 29.9933 9.17812 29.9933 7.61852V5.84148C31.6246 5.33391 32.8123 3.80992 32.8123 2.01383V1.18852C32.8123 0.532188 32.2801 0 31.6238 0Z" fill="#9B51E0"/>
<path d="M15.1597 13.9621L15.1459 13.9758C14.1689 14.9529 13.6689 16.3049 13.7744 17.6851C13.9005 19.3343 14.0747 22.5687 13.8247 25.7013C13.4732 30.1039 12.4904 32.0093 11.7278 32.8325C11.2331 33.3664 10.6876 33.615 10.0108 33.615C9.30358 33.615 7.15163 33.615 6.91967 28.0101C6.84655 26.2415 7.0096 24.4232 7.40421 22.606L8.72132 16.5406L9.13421 16.6303C9.21913 16.6487 9.30397 16.6576 9.38749 16.6576C9.93452 16.6576 10.427 16.2775 10.5478 15.7211C10.6871 15.0796 10.28 14.4467 9.6385 14.3074L9.22561 14.2178L11.3365 4.49699C11.4758 3.85559 11.0687 3.22262 10.4272 3.08332C9.786 2.94371 9.15272 3.35106 9.0135 3.99262L6.90264 13.7134L6.46186 13.6177C5.821 13.4783 5.18749 13.8855 5.04819 14.527C4.90889 15.1685 5.316 15.8014 5.95749 15.9407L6.39819 16.0364L5.08108 22.1017C4.6435 24.1168 4.46288 26.1376 4.54444 28.1085C4.64038 30.427 5.04647 32.1874 5.786 33.4903C6.71514 35.1271 8.17592 35.9922 10.0105 35.9922C11.3577 35.9922 12.522 35.4727 13.4713 34.4482C16.661 31.0053 16.5152 22.3544 16.1444 17.5041C16.0919 16.8163 16.3405 16.143 16.8265 15.6569L16.8402 15.6431C17.6664 14.8169 18.9594 14.7349 19.8785 15.3967C20.3442 14.7454 20.9048 14.1667 21.5399 13.6802C19.6837 12.1244 16.9041 12.2176 15.1597 13.9621Z" fill="#9B51E0"/>
<path d="M33.0572 28.6516C33.4532 27.8562 33.659 26.9953 33.659 26.1141C33.659 24.5141 32.9802 22.9972 31.7689 21.8357C31.9587 21.2632 32.0571 20.6601 32.0571 20.0533C32.0571 16.9393 29.5237 14.406 26.4098 14.406C23.2959 14.406 20.7625 16.9394 20.7625 20.0533C20.7625 20.6601 20.8608 21.2633 21.0507 21.8357C19.8394 22.9972 19.1605 24.5141 19.1605 26.1141C19.1605 26.9952 19.3664 27.8563 19.7624 28.6516C18.2139 30.1027 17.3447 32.0105 17.3447 34.0217C17.3447 36.1968 18.3369 38.2221 20.1386 39.7244C20.3522 39.9026 20.6217 40.0001 20.8998 40.0001H31.9201C32.1983 40.0001 32.4676 39.9026 32.6813 39.7244C34.4829 38.2221 35.4751 36.1968 35.4751 34.0217C35.4748 32.0102 34.6056 30.1027 33.0572 28.6516Z" fill="#9B51E0"/>
</g>
<defs>
<clipPath id="clip0_107_194">
<rect width="40" height="40" fill="white"/>
</clipPath>
</defs>
</svg>
