<svg width="40" height="40" viewBox="0 0 40 40" fill="none" xmlns="http://www.w3.org/2000/svg">
<g clip-path="url(#clip0_107_187)">
<path d="M12.6855 20.1797C13.1563 20.0856 13.637 20.2873 13.8992 20.6886L14.2388 21.2084C15.6044 17.6299 18.9466 14.5885 19.1263 14.4269C19.5633 14.0336 20.2245 14.024 20.6728 14.4044C20.8466 14.5518 24.6282 17.7918 25.9838 21.5074L32.5824 20.1275C34.1191 12.452 29.6875 2.85158 17.6193 0.0322806C16.6409 -0.196001 15.8477 0.830796 16.3109 1.71572C17.6762 4.32462 18.6197 6.58017 17.2818 9.04728L14.3542 5.39916C13.9088 4.84423 13.0791 4.81314 12.5913 5.31962C10.52 7.47033 7.04492 11.8612 7.04492 17.1047C7.04492 18.5338 7.22992 19.904 7.59477 21.1958L12.6855 20.1797Z" fill="#9B51E0"/>
<path d="M14.0898 28.1255H25.8315V40H14.0898V28.1255Z" fill="#9B51E0"/>
<path d="M11.7417 26.9534C11.7417 26.3062 12.2674 25.7816 12.9159 25.7816H14.424L12.3666 22.6333L0.991256 24.9038L0.00906798 32.7453C-0.0299164 33.0567 0.057818 33.3706 0.252584 33.6167L4.94922 39.554C5.26118 39.9484 5.79016 40.1003 6.26454 39.9319L11.7417 37.9866V26.9534Z" fill="#9B51E0"/>
<path d="M39.7809 29.4754L34.515 22.1179L25.1212 24.0822L24.2109 25.7817H27.0054C27.6538 25.7817 28.1795 26.3064 28.1795 26.9535V38.5632L29.8338 39.7732C30.3094 40.1211 30.9699 40.063 31.377 39.6374L39.6746 30.9659C40.064 30.559 40.1086 29.9333 39.7809 29.4754Z" fill="#9B51E0"/>
<path d="M19.9328 16.9158C18.4161 18.4939 16.0884 21.438 16.0146 23.9264L17.2271 25.7817H21.5482L23.3084 22.4951C23.4 22.3241 23.5324 22.1819 23.6899 22.0762C22.8496 19.9675 20.9929 17.953 19.9328 16.9158Z" fill="#9B51E0"/>
</g>
<defs>
<clipPath id="clip0_107_187">
<rect width="40" height="40" fill="white"/>
</clipPath>
</defs>
</svg>
