<svg width="40" height="41" viewBox="0 0 40 41" fill="none" xmlns="http://www.w3.org/2000/svg">
<g clip-path="url(#clip0_1745_8)">
<path d="M12.6855 20.9221C13.1563 20.828 13.637 21.0297 13.8992 21.431L14.2388 21.9508C15.6044 18.3724 18.9466 15.3309 19.1263 15.1693C19.5633 14.776 20.2245 14.7664 20.6728 15.1468C20.8466 15.2942 24.6282 18.5342 25.9838 22.2498L32.5824 20.8699C34.1191 13.1944 29.6875 3.59401 17.6193 0.774712C16.6409 0.546431 15.8477 1.57323 16.3109 2.45815C17.6762 5.06706 18.6197 7.3226 17.2818 9.78971L14.3542 6.14159C13.9088 5.58667 13.0791 5.55557 12.5913 6.06206C10.52 8.21276 7.04492 12.6036 7.04492 17.8471C7.04492 19.2763 7.22992 20.6464 7.59477 21.9382L12.6855 20.9221Z" fill="#F2994A"/>
<path d="M14.0898 28.8679H25.8315V40.7425H14.0898V28.8679Z" fill="#F2994A"/>
<path d="M11.7417 27.6958C11.7417 27.0486 12.2674 26.524 12.9159 26.524H14.424L12.3666 23.3757L0.991255 25.6463L0.00906798 33.4878C-0.0299164 33.7991 0.057818 34.113 0.252584 34.3592L4.94922 40.2964C5.26118 40.6908 5.79016 40.8428 6.26454 40.6743L11.7417 38.729V27.6958Z" fill="#F2994A"/>
<path d="M39.7814 30.2179L34.5155 22.8604L25.1217 24.8246L24.2114 26.5242H27.0059C27.6543 26.5242 28.18 27.0489 28.18 27.696V39.3057L29.8342 40.5157C30.3099 40.8636 30.9703 40.8054 31.3775 40.3798L39.6751 31.7083C40.0645 31.3014 40.1091 30.6757 39.7814 30.2179V30.2179Z" fill="#F2994A"/>
<path d="M19.9333 17.6582C18.4166 19.2363 16.0889 22.1804 16.0151 24.6688L17.2276 26.5241H21.5486L23.3089 23.2375C23.4005 23.0665 23.5329 22.9244 23.6904 22.8187C22.85 20.7099 20.9934 18.6954 19.9333 17.6582V17.6582Z" fill="#F2994A"/>
</g>
<defs>
<clipPath id="clip0_1745_8">
<rect width="40" height="40" fill="white" transform="translate(0 0.742432)"/>
</clipPath>
</defs>
</svg>
