<svg width="44" height="60" viewBox="0 0 44 60" fill="none" xmlns="http://www.w3.org/2000/svg">
<path d="M43.1843 3.79877C43.1433 3.25573 42.67 2.84862 42.1268 2.88975C41.5839 2.93077 41.1768 3.4042 41.2178 3.94725C41.4281 6.73233 41.1301 10.7945 38.5157 14.3308C35.8976 17.8721 32.1843 19.104 30.1893 19.766C27.235 20.7461 24.523 21.0014 22.0076 20.9355C22.228 20.4598 22.352 19.9305 22.352 19.3725C22.352 17.6355 21.1583 16.1719 19.5483 15.7589V14.4733H24.8133C26.807 14.4733 28.4289 12.8513 28.4289 10.8577V9.80592C28.4289 9.26123 27.9874 8.81991 27.4429 8.81991H22.6442L24.6172 2.45557C24.7974 1.87455 24.6938 1.26038 24.3328 0.770766C23.9719 0.281157 23.4161 0.000375275 22.8078 0.000375275H17.5762C17.0316 0.000375275 16.5901 0.441703 16.5901 0.986391C16.5901 1.53108 17.0316 1.97241 17.5762 1.97241H22.7024L20.5795 8.82002H16.5141L13.609 0.655571C13.4265 0.142524 12.8623 -0.124898 12.3495 0.057094C11.8363 0.239672 11.5685 0.803696 11.751 1.31674L14.4209 8.81979H9.75963C9.21506 8.81979 8.77361 9.26112 8.77361 9.80581V10.8576C8.77361 12.8512 10.3955 14.4731 12.3892 14.4731H17.5764V15.7927C16.0274 16.246 14.8922 17.6788 14.8922 19.3725C14.8922 19.6471 14.9228 19.9145 14.9795 20.1723C11.0637 19.6198 7.65857 19.3517 4.84994 21.9504C4.08553 22.6579 2.28131 24.6105 2.03908 27.4552C2.02268 27.6478 1.68037 32.1996 5.3651 34.6687C6.83275 35.6521 8.35467 35.9248 9.59099 35.9248C10.0846 35.9248 10.5322 35.8813 10.913 35.8223C11.199 36.6453 11.7744 37.3335 12.5169 37.7655C8.86971 39.7905 6.39541 43.6819 6.39541 48.141C6.39541 50.348 7.01018 52.4918 8.14994 54.3468H5.376C2.83033 54.3468 0.759277 56.418 0.759277 58.9635V59.0141C0.759277 59.5588 1.20072 60.0001 1.74529 60.0001H35.4573C36.0019 60.0001 36.4433 59.5588 36.4433 59.0141V58.9635C36.4433 56.4178 34.3724 54.3468 31.8266 54.3468H10.5576C9.1424 52.5931 8.36744 50.4065 8.36744 48.141C8.36744 42.6893 12.8028 38.254 18.2544 38.254C23.7061 38.254 28.1415 42.6893 28.1415 48.141C28.1415 49.1792 27.9817 50.2013 27.6662 51.1789C27.4991 51.6971 27.7838 52.2528 28.3021 52.4199C28.8205 52.5871 29.376 52.3023 29.5432 51.784C29.9216 50.6105 30.1136 49.3847 30.1136 48.1409C30.1136 43.8155 27.7855 40.0242 24.3171 37.9525C25.5944 37.3941 26.4897 36.1191 26.4897 34.6383C26.4897 33.0112 25.409 31.632 23.9277 31.1799C23.6755 29.5532 22.6929 28.1656 21.3271 27.3613C21.9265 26.6992 22.2921 25.8218 22.2921 24.8605C22.2921 24.1398 22.0861 23.4666 21.7306 22.8955C24.4845 22.9852 27.5213 22.7289 30.81 21.6379C32.8555 20.9592 37.1117 19.547 40.1012 15.5033C43.2331 11.2674 43.3772 6.3517 43.1843 3.79877ZM10.0879 56.3186C10.0921 56.3186 10.0962 56.3193 10.1004 56.3193C10.1053 56.3193 10.1101 56.3188 10.1151 56.3186H31.8269C32.9558 56.3186 33.9219 57.0297 34.3006 58.0278H2.90228C3.28092 57.0298 4.24701 56.3186 5.376 56.3186H10.0879ZM12.3891 12.5011C11.483 12.5011 10.7456 11.7638 10.7456 10.8577V10.7919H15.8183H21.3062H26.4569V10.8577C26.4569 11.7639 25.7196 12.5011 24.8134 12.5011H12.3891ZM18.3768 17.6336C18.437 17.6451 18.4989 17.6516 18.5624 17.6516C18.6423 17.6516 18.7197 17.6411 18.7942 17.6231C19.683 17.7099 20.3801 18.461 20.3801 19.3724C20.3801 19.953 20.0958 20.4672 19.6607 20.7874C18.8454 20.709 18.0515 20.6086 17.2767 20.5014C17.0199 20.1958 16.8644 19.802 16.8644 19.3724C16.8642 18.4865 17.5235 17.7536 18.3768 17.6336ZM18.5624 23.1023C19.5318 23.1023 20.3203 23.8908 20.3203 24.8602C20.3203 25.8294 19.5318 26.618 18.5624 26.618C17.5931 26.6181 16.8046 25.8294 16.8046 24.8602C16.8046 23.8909 17.5931 23.1023 18.5624 23.1023ZM10.8031 33.8384C9.85771 34.0107 8.08654 34.118 6.46291 33.03C3.73314 31.2008 4.00103 27.6576 4.00408 27.6219C4.1876 25.4644 5.5935 23.9488 6.18928 23.3976C8.53631 21.2257 11.5269 21.6611 15.6661 22.2632C15.7308 22.2727 15.7964 22.2822 15.8616 22.2915C15.2245 22.961 14.8324 23.8654 14.8324 24.8602C14.8324 25.8359 15.2094 26.7248 15.8247 27.39C14.4851 28.1985 13.5238 29.5726 13.2747 31.1794C12.0437 31.5552 11.0903 32.5716 10.8031 33.8384ZM22.8742 32.9948C23.7804 32.9948 24.5176 33.732 24.5176 34.6382C24.5176 35.5444 23.7804 36.2816 22.8742 36.2816H14.3283C13.4221 36.2816 12.6849 35.5444 12.6849 34.6382C12.6849 33.732 13.4221 32.9948 14.3283 32.9948H22.8742ZM21.8741 31.0226H15.3286C15.7528 29.6168 17.0592 28.5903 18.6013 28.5903C20.1434 28.5903 21.4497 29.6171 21.8741 31.0226Z" fill="#F2994A"/>
</svg>
